<svg width="32" height="32" viewBox="0 0 32 32" fill="none" xmlns="http://www.w3.org/2000/svg">
<path fill-rule="evenodd" clip-rule="evenodd" d="M6.66666 5.33325C4.45752 5.33325 2.66666 7.12411 2.66666 9.33325V22.6666C2.66666 24.8757 4.45752 26.6666 6.66666 26.6666H25.3333C27.5425 26.6666 29.3333 24.8757 29.3333 22.6666V9.33325C29.3333 7.12411 27.5425 5.33325 25.3333 5.33325H6.66666ZM6.43401 8.02015C6.50956 8.00685 6.5873 7.99992 6.66666 7.99992H25.3333C25.4127 7.99992 25.4904 8.00685 25.566 8.02015L16 14.3975L6.43401 8.02015ZM5.33332 10.4913V22.6666C5.33332 23.403 5.93028 23.9999 6.66666 23.9999H25.3333C26.0697 23.9999 26.6667 23.403 26.6667 22.6666V10.4913L16.7396 17.1093C16.2917 17.4079 15.7083 17.4079 15.2604 17.1093L5.33332 10.4913Z" fill="#A0ABBB"/>
</svg>
