<svg width="33" height="32" viewBox="0 0 33 32" fill="none" xmlns="http://www.w3.org/2000/svg">
<path fill-rule="evenodd" clip-rule="evenodd" d="M6.99997 5.33301C4.79083 5.33301 2.99997 7.12387 2.99997 9.33301V22.6663C2.99997 24.8755 4.79083 26.6663 6.99997 26.6663H25.6666C27.8758 26.6663 29.6666 24.8755 29.6666 22.6663V9.33301C29.6666 7.12387 27.8758 5.33301 25.6666 5.33301H6.99997ZM6.76732 8.0199C6.84287 8.00661 6.92061 7.99967 6.99997 7.99967H25.6666C25.746 7.99967 25.8238 8.00661 25.8993 8.01991L16.3333 14.3972L6.76732 8.0199ZM5.66664 10.491V22.6663C5.66664 23.4027 6.26359 23.9997 6.99997 23.9997H25.6666C26.403 23.9997 27 23.4027 27 22.6663V10.4911L17.0729 17.1091C16.6251 17.4077 16.0416 17.4077 15.5937 17.1091L5.66664 10.491Z" fill="#B8C0CC"/>
</svg>
