<svg width="29" height="29" viewBox="0 0 29 29" fill="none" xmlns="http://www.w3.org/2000/svg">
<path d="M4.04359 14.0381L6.37693 11.7048M6.37693 11.7048L14.5436 3.53809L22.7103 11.7048M6.37693 11.7048L6.37693 23.3714C6.37693 24.0158 6.89926 24.5381 7.54359 24.5381L11.0436 24.5381M22.7103 11.7048L25.0436 14.0381M22.7103 11.7048L22.7103 23.3714C22.7103 24.0158 22.1879 24.5381 21.5436 24.5381L18.0436 24.5381M11.0436 24.5381C11.6879 24.5381 12.2103 24.0158 12.2103 23.3714L12.2103 18.7048C12.2103 18.0604 12.7326 17.5381 13.3769 17.5381L15.7103 17.5381C16.3546 17.5381 16.8769 18.0604 16.8769 18.7048L16.8769 23.3714C16.8769 24.0158 17.3993 24.5381 18.0436 24.5381M11.0436 24.5381L18.0436 24.5381" stroke="#64748B" stroke-width="2" stroke-linecap="round" stroke-linejoin="round"/>
</svg>
