<svg width="29" height="29" viewBox="0 0 29 29" fill="none" xmlns="http://www.w3.org/2000/svg">
<path d="M3.98117 14.0288L6.3145 11.6955M6.3145 11.6955L14.4812 3.52881L22.6478 11.6955M6.3145 11.6955L6.3145 23.3621C6.3145 24.0065 6.83684 24.5288 7.48117 24.5288L10.9812 24.5288M22.6478 11.6955L24.9812 14.0288M22.6478 11.6955L22.6478 23.3621C22.6478 24.0065 22.1255 24.5288 21.4812 24.5288L17.9812 24.5288M10.9812 24.5288C11.6255 24.5288 12.1478 24.0065 12.1478 23.3621L12.1478 18.6955C12.1478 18.0511 12.6702 17.5288 13.3145 17.5288L15.6478 17.5288C16.2922 17.5288 16.8145 18.0511 16.8145 18.6955L16.8145 23.3621C16.8145 24.0065 17.3368 24.5288 17.9812 24.5288M10.9812 24.5288L17.9812 24.5288" stroke="#64748B" stroke-width="2" stroke-linecap="round" stroke-linejoin="round"/>
</svg>
