<svg width="33" height="32" viewBox="0 0 33 32" fill="none" xmlns="http://www.w3.org/2000/svg">
<path fill-rule="evenodd" clip-rule="evenodd" d="M6.99997 5.33325C4.79083 5.33325 2.99997 7.12411 2.99997 9.33325V22.6666C2.99997 24.8757 4.79083 26.6666 6.99997 26.6666H25.6666C27.8758 26.6666 29.6666 24.8757 29.6666 22.6666V9.33325C29.6666 7.12411 27.8758 5.33325 25.6666 5.33325H6.99997ZM6.76732 8.02015C6.84287 8.00685 6.92061 7.99992 6.99997 7.99992H25.6666C25.746 7.99992 25.8238 8.00685 25.8993 8.02015L16.3333 14.3975L6.76732 8.02015ZM5.66664 10.4913V22.6666C5.66664 23.403 6.26359 23.9999 6.99997 23.9999H25.6666C26.403 23.9999 27 23.403 27 22.6666V10.4913L17.0729 17.1093C16.6251 17.4079 16.0416 17.4079 15.5937 17.1093L5.66664 10.4913Z" fill="#B8C0CC"/>
</svg>
