<svg width="21" height="20" viewBox="0 0 21 20" fill="none" xmlns="http://www.w3.org/2000/svg">
<path fill-rule="evenodd" clip-rule="evenodd" d="M10.3923 4.16667H3.58333C3.1231 4.16667 2.75 4.53976 2.75 5C2.75 5.46024 3.1231 5.83333 3.58333 5.83333H10.3923C10.7355 6.80433 11.6615 7.5 12.75 7.5C13.8385 7.5 14.7645 6.80433 15.1077 5.83333H16.9167C17.3769 5.83333 17.75 5.46024 17.75 5C17.75 4.53976 17.3769 4.16667 16.9167 4.16667H15.1077C14.7645 3.19567 13.8385 2.5 12.75 2.5C11.6615 2.5 10.7355 3.19567 10.3923 4.16667ZM11.9167 5C11.9167 4.53976 12.2898 4.16667 12.75 4.16667C13.2102 4.16667 13.5833 4.53976 13.5833 5C13.5833 5.46024 13.2102 5.83333 12.75 5.83333C12.2898 5.83333 11.9167 5.46024 11.9167 5Z" fill="#64748B"/>
<path fill-rule="evenodd" clip-rule="evenodd" d="M6.91667 7.5C8.00518 7.5 8.93121 8.19567 9.27441 9.16667H16.9167C17.3769 9.16667 17.75 9.53976 17.75 10C17.75 10.4602 17.3769 10.8333 16.9167 10.8333H9.27441C8.93121 11.8043 8.00518 12.5 6.91667 12.5C5.82815 12.5 4.90212 11.8043 4.55892 10.8333H3.58333C3.1231 10.8333 2.75 10.4602 2.75 10C2.75 9.53976 3.1231 9.16667 3.58333 9.16667H4.55892C4.90212 8.19567 5.82815 7.5 6.91667 7.5ZM6.91667 9.16667C7.3769 9.16667 7.75 9.53976 7.75 10C7.75 10.4602 7.3769 10.8333 6.91667 10.8333C6.45643 10.8333 6.08333 10.4602 6.08333 10C6.08333 9.53976 6.45643 9.16667 6.91667 9.16667Z" fill="#64748B"/>
<path fill-rule="evenodd" clip-rule="evenodd" d="M3.58333 14.1667C3.1231 14.1667 2.75 14.5398 2.75 15C2.75 15.4602 3.1231 15.8333 3.58333 15.8333H12.0589C12.4021 16.8043 13.3282 17.5 14.4167 17.5C15.5052 17.5 16.4312 16.8043 16.7744 15.8333H16.9167C17.3769 15.8333 17.75 15.4602 17.75 15C17.75 14.5398 17.3769 14.1667 16.9167 14.1667H16.7744C16.4312 13.1957 15.5052 12.5 14.4167 12.5C13.3282 12.5 12.4021 13.1957 12.0589 14.1667H3.58333ZM15.25 15C15.25 14.5398 14.8769 14.1667 14.4167 14.1667C13.9564 14.1667 13.5833 14.5398 13.5833 15C13.5833 15.4602 13.9564 15.8333 14.4167 15.8333C14.8769 15.8333 15.25 15.4602 15.25 15Z" fill="#64748B"/>
</svg>
