<svg width="29" height="29" viewBox="0 0 29 29" fill="none" xmlns="http://www.w3.org/2000/svg">
<path d="M3.98117 14.0283L6.3145 11.695M6.3145 11.695L14.4812 3.52832L22.6478 11.695M6.3145 11.695L6.3145 23.3617C6.3145 24.006 6.83684 24.5283 7.48117 24.5283L10.9812 24.5283M22.6478 11.695L24.9812 14.0283M22.6478 11.695L22.6478 23.3617C22.6478 24.006 22.1255 24.5283 21.4812 24.5283L17.9812 24.5283M10.9812 24.5283C11.6255 24.5283 12.1478 24.006 12.1478 23.3617L12.1478 18.695C12.1478 18.0507 12.6702 17.5283 13.3145 17.5283L15.6478 17.5283C16.2922 17.5283 16.8145 18.0507 16.8145 18.695L16.8145 23.3617C16.8145 24.006 17.3368 24.5283 17.9812 24.5283M10.9812 24.5283L17.9812 24.5283" stroke="#64748B" stroke-width="2" stroke-linecap="round" stroke-linejoin="round"/>
</svg>
