<svg width="32" height="32" viewBox="0 0 32 32" fill="none" xmlns="http://www.w3.org/2000/svg">
<path fill-rule="evenodd" clip-rule="evenodd" d="M16 5.33341C12.3181 5.33341 9.33333 8.31818 9.33333 12.0001C9.33333 15.7173 11.4823 21.1565 16 26.0738C20.5177 21.1565 22.6667 15.7173 22.6667 12.0001C22.6667 8.31818 19.6819 5.33341 16 5.33341ZM6.66667 12.0001C6.66667 6.84542 10.8453 2.66675 16 2.66675C21.1547 2.66675 25.3333 6.84542 25.3333 12.0001C25.3333 16.8697 22.4474 23.4383 16.9428 28.9429C16.4221 29.4636 15.5779 29.4636 15.0572 28.9429C9.55259 23.4383 6.66667 16.8697 6.66667 12.0001Z" fill="#A0ABBB"/>
<path fill-rule="evenodd" clip-rule="evenodd" d="M16 13.3334C16.7364 13.3334 17.3333 12.7365 17.3333 12.0001C17.3333 11.2637 16.7364 10.6667 16 10.6667C15.2636 10.6667 14.6667 11.2637 14.6667 12.0001C14.6667 12.7365 15.2636 13.3334 16 13.3334ZM16 16.0001C18.2091 16.0001 20 14.2092 20 12.0001C20 9.79094 18.2091 8.00008 16 8.00008C13.7909 8.00008 12 9.79094 12 12.0001C12 14.2092 13.7909 16.0001 16 16.0001Z" fill="#A0ABBB"/>
</svg>
