<svg width="32" height="32" viewBox="0 0 32 32" fill="none" xmlns="http://www.w3.org/2000/svg">
<path fill-rule="evenodd" clip-rule="evenodd" d="M5.97942 5.71991C5.59787 6.10188 5.24802 6.57042 5.02182 6.97841C4.73771 7.47707 4.52797 8.02389 4.40152 8.59241L4.33572 8.93592C3.29871 14.1972 4.6157 18.9038 8.96325 23.2204C11.8158 26.0526 13.9788 27.2164 16.9406 27.6413C17.4205 27.7102 17.9218 27.7619 18.5183 27.8061L19.7446 27.8806C20.429 27.916 21.5693 27.9728 21.9586 27.995C22.4713 28.0242 23.1496 27.9261 24.0612 27.7126L24.1993 27.6721C24.9951 27.391 25.7217 26.9349 26.3301 26.3258C28.5566 24.0969 28.5566 20.4831 26.3301 18.2542L26.1318 18.0648C23.9795 16.1049 20.6882 16.087 18.5158 18.0207L18.2582 18.2538L16.8817 19.6318C16.5801 19.9337 16.1051 19.9746 15.7564 19.7287C15.0309 19.217 13.1032 17.3304 12.6327 16.6874C12.3769 16.3378 12.414 15.8537 12.7201 15.5474L13.9329 14.3341L14.0366 14.2497L14.1906 14.107C14.2184 14.0802 14.2467 14.0524 14.2748 14.0244C16.5655 11.7311 16.5655 8.01312 14.2748 5.71991C11.9841 3.4267 8.27012 3.4267 5.97942 5.71991ZM7.84006 7.58259C9.10315 6.31811 11.151 6.31811 12.4141 7.58259C13.6772 8.84707 13.6772 10.8972 12.4141 12.1617C12.336 12.2399 12.2546 12.3136 12.1701 12.3827L10.86 13.6843C9.63541 14.9097 9.48685 16.846 10.51 18.2442C11.1504 19.1192 13.2835 21.2069 14.2409 21.8822L14.4256 22.004C15.7998 22.8498 17.5882 22.6499 18.7424 21.4944L20.0149 20.2201L20.0323 20.2113L20.1549 20.0913C21.3559 18.9159 23.2803 18.9263 24.4695 20.1169C25.6684 21.3171 25.6684 23.2629 24.4695 24.4631L24.265 24.6505C24.0536 24.8276 23.822 24.9735 23.5753 25.0863L23.3762 25.1664L23.0379 25.2409L22.6807 25.3078C22.412 25.3528 22.2173 25.3712 22.1082 25.365L19.4364 25.2262L18.7286 25.1802L18.1146 25.1285C17.8268 25.1007 17.5647 25.0697 17.3138 25.0337C14.9428 24.6936 13.2858 23.802 10.8162 21.35C7.2278 17.7872 6.11555 14.1017 6.84874 9.81688L6.92544 9.40033C6.99495 8.9737 7.12368 8.60608 7.3151 8.27002C7.43164 8.05999 7.63432 7.78856 7.84006 7.58259Z" fill="#A0ABBB"/>
</svg>
