<svg width="33" height="32" viewBox="0 0 33 32" fill="none" xmlns="http://www.w3.org/2000/svg">
<path fill-rule="evenodd" clip-rule="evenodd" d="M16.6666 5.33341C12.9847 5.33341 9.99996 8.31818 9.99996 12.0001C9.99996 15.7173 12.1489 21.1565 16.6666 26.0738C21.1844 21.1565 23.3333 15.7173 23.3333 12.0001C23.3333 8.31818 20.3485 5.33341 16.6666 5.33341ZM7.33329 12.0001C7.33329 6.84542 11.512 2.66675 16.6666 2.66675C21.8213 2.66675 26 6.84542 26 12.0001C26 16.8697 23.114 23.4383 17.6094 28.9429C17.0887 29.4636 16.2445 29.4636 15.7238 28.9429C10.2192 23.4383 7.33329 16.8697 7.33329 12.0001Z" fill="#B8C0CC"/>
<path fill-rule="evenodd" clip-rule="evenodd" d="M16.6666 13.3334C17.403 13.3334 18 12.7365 18 12.0001C18 11.2637 17.403 10.6667 16.6666 10.6667C15.9302 10.6667 15.3333 11.2637 15.3333 12.0001C15.3333 12.7365 15.9302 13.3334 16.6666 13.3334ZM16.6666 16.0001C18.8758 16.0001 20.6666 14.2092 20.6666 12.0001C20.6666 9.79094 18.8758 8.00008 16.6666 8.00008C14.4575 8.00008 12.6666 9.79094 12.6666 12.0001C12.6666 14.2092 14.4575 16.0001 16.6666 16.0001Z" fill="#B8C0CC"/>
</svg>
