<svg width="29" height="29" viewBox="0 0 29 29" fill="none" xmlns="http://www.w3.org/2000/svg">
<path d="M3.98117 14.0273L6.3145 11.694M6.3145 11.694L14.4812 3.52734L22.6478 11.694M6.3145 11.694L6.3145 23.3607C6.3145 24.005 6.83684 24.5273 7.48117 24.5273L10.9812 24.5273M22.6478 11.694L24.9812 14.0273M22.6478 11.694L22.6478 23.3607C22.6478 24.005 22.1255 24.5273 21.4812 24.5273L17.9812 24.5273M10.9812 24.5273C11.6255 24.5273 12.1478 24.005 12.1478 23.3607L12.1478 18.694C12.1478 18.0497 12.6702 17.5273 13.3145 17.5273L15.6478 17.5273C16.2922 17.5273 16.8145 18.0497 16.8145 18.694L16.8145 23.3607C16.8145 24.005 17.3368 24.5273 17.9812 24.5273M10.9812 24.5273L17.9812 24.5273" stroke="#64748B" stroke-width="2" stroke-linecap="round" stroke-linejoin="round"/>
</svg>
