<svg width="29" height="29" viewBox="0 0 29 29" fill="none" xmlns="http://www.w3.org/2000/svg">
<path d="M4.04359 14.0382L6.37693 11.7049M6.37693 11.7049L14.5436 3.53821L22.7103 11.7049M6.37693 11.7049L6.37693 23.3715C6.37693 24.0159 6.89926 24.5382 7.54359 24.5382L11.0436 24.5382M22.7103 11.7049L25.0436 14.0382M22.7103 11.7049L22.7103 23.3715C22.7103 24.0159 22.1879 24.5382 21.5436 24.5382L18.0436 24.5382M11.0436 24.5382C11.6879 24.5382 12.2103 24.0159 12.2103 23.3715L12.2103 18.7049C12.2103 18.0605 12.7326 17.5382 13.3769 17.5382L15.7103 17.5382C16.3546 17.5382 16.8769 18.0605 16.8769 18.7049L16.8769 23.3715C16.8769 24.0159 17.3993 24.5382 18.0436 24.5382M11.0436 24.5382L18.0436 24.5382" stroke="#64748B" stroke-width="2" stroke-linecap="round" stroke-linejoin="round"/>
</svg>
