<svg width="16" height="16" viewBox="0 0 16 16" fill="none" xmlns="http://www.w3.org/2000/svg">
<path fill-rule="evenodd" clip-rule="evenodd" d="M2.14416 7.99984C2.52926 8.53094 3.31851 9.53168 4.3578 10.403C5.4354 11.3064 6.69722 11.9998 8.00001 11.9998C9.3028 11.9998 10.5646 11.3064 11.6422 10.403C12.6815 9.53168 13.4708 8.53094 13.8559 7.99984C13.4708 7.46874 12.6815 6.468 11.6422 5.5967C10.5646 4.69327 9.3028 3.99984 8.00001 3.99984C6.69722 3.99984 5.4354 4.69327 4.3578 5.5967C3.31851 6.468 2.52926 7.46874 2.14416 7.99984ZM3.50119 4.57493C4.67567 3.59029 6.23753 2.6665 8.00001 2.6665C9.76249 2.6665 11.3243 3.59029 12.4988 4.57493C13.6847 5.56913 14.5621 6.69793 14.9676 7.26184C15.2865 7.70542 15.2865 8.29426 14.9676 8.73784C14.5621 9.30174 13.6847 10.4305 12.4988 11.4247C11.3243 12.4094 9.76249 13.3332 8.00001 13.3332C6.23753 13.3332 4.67567 12.4094 3.50119 11.4247C2.31532 10.4305 1.43788 9.30174 1.03246 8.73784C0.713546 8.29426 0.713546 7.70542 1.03246 7.26184C1.43788 6.69793 2.31532 5.56913 3.50119 4.57493Z" fill="#64748B"/>
<path fill-rule="evenodd" clip-rule="evenodd" d="M8.00001 9.33317C8.73639 9.33317 9.33334 8.73622 9.33334 7.99984C9.33334 7.26346 8.73639 6.6665 8.00001 6.6665C7.26363 6.6665 6.66667 7.26346 6.66667 7.99984C6.66667 8.73622 7.26363 9.33317 8.00001 9.33317ZM8.00001 10.6665C9.47277 10.6665 10.6667 9.4726 10.6667 7.99984C10.6667 6.52708 9.47277 5.33317 8.00001 5.33317C6.52725 5.33317 5.33334 6.52708 5.33334 7.99984C5.33334 9.4726 6.52725 10.6665 8.00001 10.6665Z" fill="#64748B"/>
</svg>
