<svg width="16" height="16" viewBox="0 0 16 16" fill="none" xmlns="http://www.w3.org/2000/svg">
<path fill-rule="evenodd" clip-rule="evenodd" d="M6.66667 2C4.08934 2 2 4.08934 2 6.66667C2 9.244 4.08934 11.3333 6.66667 11.3333C7.71489 11.3333 8.68239 10.9877 9.46145 10.4043L12.1953 13.1381C12.4557 13.3985 12.8778 13.3985 13.1381 13.1381C13.3985 12.8778 13.3985 12.4557 13.1381 12.1953L10.4043 9.46145C10.9877 8.68239 11.3333 7.71489 11.3333 6.66667C11.3333 4.08934 9.244 2 6.66667 2ZM3.33333 6.66667C3.33333 4.82572 4.82572 3.33333 6.66667 3.33333C8.50762 3.33333 10 4.82572 10 6.66667C10 8.50762 8.50762 10 6.66667 10C4.82572 10 3.33333 8.50762 3.33333 6.66667Z" fill="#64748B"/>
</svg>
