<svg width="33" height="32" viewBox="0 0 33 32" fill="none" xmlns="http://www.w3.org/2000/svg">
<path fill-rule="evenodd" clip-rule="evenodd" d="M16.6666 5.33366C12.9847 5.33366 9.99996 8.31843 9.99996 12.0003C9.99996 15.7175 12.1489 21.1567 16.6666 26.0741C21.1844 21.1567 23.3333 15.7175 23.3333 12.0003C23.3333 8.31843 20.3485 5.33366 16.6666 5.33366ZM7.33329 12.0003C7.33329 6.84567 11.512 2.66699 16.6666 2.66699C21.8213 2.66699 26 6.84567 26 12.0003C26 16.8699 23.114 23.4385 17.6094 28.9431C17.0887 29.4638 16.2445 29.4638 15.7238 28.9431C10.2192 23.4385 7.33329 16.8699 7.33329 12.0003Z" fill="#B8C0CC"/>
<path fill-rule="evenodd" clip-rule="evenodd" d="M16.6666 13.3337C17.403 13.3337 18 12.7367 18 12.0003C18 11.2639 17.403 10.667 16.6666 10.667C15.9302 10.667 15.3333 11.2639 15.3333 12.0003C15.3333 12.7367 15.9302 13.3337 16.6666 13.3337ZM16.6666 16.0003C18.8758 16.0003 20.6666 14.2095 20.6666 12.0003C20.6666 9.79119 18.8758 8.00033 16.6666 8.00033C14.4575 8.00033 12.6666 9.79119 12.6666 12.0003C12.6666 14.2095 14.4575 16.0003 16.6666 16.0003Z" fill="#B8C0CC"/>
</svg>
