<svg width="16" height="16" viewBox="0 0 16 16" fill="none" xmlns="http://www.w3.org/2000/svg">
<path fill-rule="evenodd" clip-rule="evenodd" d="M2.14416 8.00008C2.52926 8.53118 3.31851 9.53192 4.3578 10.4032C5.4354 11.3066 6.69722 12.0001 8.00001 12.0001C9.3028 12.0001 10.5646 11.3066 11.6422 10.4032C12.6815 9.53192 13.4708 8.53118 13.8559 8.00008C13.4708 7.46898 12.6815 6.46824 11.6422 5.59694C10.5646 4.69352 9.3028 4.00008 8.00001 4.00008C6.69722 4.00008 5.4354 4.69352 4.3578 5.59694C3.31851 6.46824 2.52926 7.46898 2.14416 8.00008ZM3.50119 4.57518C4.67567 3.59053 6.23753 2.66675 8.00001 2.66675C9.76249 2.66675 11.3243 3.59053 12.4988 4.57518C13.6847 5.56937 14.5621 6.69817 14.9676 7.26208C15.2865 7.70566 15.2865 8.2945 14.9676 8.73808C14.5621 9.30199 13.6847 10.4308 12.4988 11.425C11.3243 12.4096 9.76249 13.3334 8.00001 13.3334C6.23753 13.3334 4.67567 12.4096 3.50119 11.425C2.31532 10.4308 1.43788 9.30199 1.03246 8.73808C0.713546 8.2945 0.713546 7.70566 1.03246 7.26208C1.43788 6.69817 2.31532 5.56937 3.50119 4.57518Z" fill="#64748B"/>
<path fill-rule="evenodd" clip-rule="evenodd" d="M8.00001 9.33341C8.73639 9.33341 9.33334 8.73646 9.33334 8.00008C9.33334 7.2637 8.73639 6.66675 8.00001 6.66675C7.26363 6.66675 6.66667 7.2637 6.66667 8.00008C6.66667 8.73646 7.26363 9.33341 8.00001 9.33341ZM8.00001 10.6667C9.47277 10.6667 10.6667 9.47284 10.6667 8.00008C10.6667 6.52732 9.47277 5.33341 8.00001 5.33341C6.52725 5.33341 5.33334 6.52732 5.33334 8.00008C5.33334 9.47284 6.52725 10.6667 8.00001 10.6667Z" fill="#64748B"/>
</svg>
