<svg width="29" height="29" viewBox="0 0 29 29" fill="none" xmlns="http://www.w3.org/2000/svg">
<path d="M4.04359 14.0386L6.37693 11.7052M6.37693 11.7052L14.5436 3.53857L22.7103 11.7052M6.37693 11.7052L6.37693 23.3719C6.37693 24.0162 6.89926 24.5386 7.54359 24.5386L11.0436 24.5386M22.7103 11.7052L25.0436 14.0386M22.7103 11.7052L22.7103 23.3719C22.7103 24.0162 22.1879 24.5386 21.5436 24.5386L18.0436 24.5386M11.0436 24.5386C11.6879 24.5386 12.2103 24.0162 12.2103 23.3719L12.2103 18.7052C12.2103 18.0609 12.7326 17.5386 13.3769 17.5386L15.7103 17.5386C16.3546 17.5386 16.8769 18.0609 16.8769 18.7052L16.8769 23.3719C16.8769 24.0162 17.3993 24.5386 18.0436 24.5386M11.0436 24.5386L18.0436 24.5386" stroke="#64748B" stroke-width="2" stroke-linecap="round" stroke-linejoin="round"/>
</svg>
