<svg width="36" height="36" viewBox="0 0 36 36" fill="none" xmlns="http://www.w3.org/2000/svg">
<path d="M10.875 10.5H25.125V7.5C25.125 4.5 24 3 20.625 3H15.375C12 3 10.875 4.5 10.875 7.5V10.5Z" stroke="#A0ABBB" stroke-width="1.8" stroke-linecap="round" stroke-linejoin="round"/>
<path d="M24 22.5V28.5C24 31.5 22.5 33 19.5 33H16.5C13.5 33 12 31.5 12 28.5V22.5H24Z" stroke="#A0ABBB" stroke-width="1.8" stroke-linecap="round" stroke-linejoin="round"/>
<path d="M31.5 15V22.5C31.5 25.5 30 27 27 27H24V22.5H12V27H9C6 27 4.5 25.5 4.5 22.5V15C4.5 12 6 10.5 9 10.5H27C30 10.5 31.5 12 31.5 15Z" stroke="#A0ABBB" stroke-width="1.8" stroke-linecap="round" stroke-linejoin="round"/>
<path d="M25.5 22.5H23.685H10.5" stroke="#A0ABBB" stroke-width="1.8" stroke-linecap="round" stroke-linejoin="round"/>
<path d="M10.5 16.5H15" stroke="#A0ABBB" stroke-width="1.8" stroke-linecap="round" stroke-linejoin="round"/>
</svg>
