<svg width="17" height="16" viewBox="0 0 17 16" fill="none" xmlns="http://www.w3.org/2000/svg">
<path fill-rule="evenodd" clip-rule="evenodd" d="M16.0133 8.1819C16.0133 7.61462 15.9624 7.06917 15.8679 6.54553H8.33334V9.64008H12.6388C12.4533 10.6401 11.8897 11.4873 11.0424 12.0546V14.0619H13.6279C15.1406 12.6692 16.0133 10.6183 16.0133 8.1819Z" fill="#191D23"/>
<path fill-rule="evenodd" clip-rule="evenodd" d="M8.33331 15.9999C10.4933 15.9999 12.3042 15.2835 13.6279 14.0617L11.0424 12.0544C10.326 12.5344 9.40967 12.8181 8.33331 12.8181C6.24967 12.8181 4.48604 11.4108 3.85695 9.5199H1.18422V11.5926C2.50058 14.2072 5.20604 15.9999 8.33331 15.9999Z" fill="#191D23"/>
<path fill-rule="evenodd" clip-rule="evenodd" d="M3.85698 9.52008C3.69698 9.04008 3.60607 8.52735 3.60607 8.00008C3.60607 7.4728 3.69698 6.96008 3.85698 6.48008V4.40735H1.18425C0.642434 5.48735 0.333344 6.70917 0.333344 8.00008C0.333344 9.29098 0.642434 10.5128 1.18425 11.5928L3.85698 9.52008Z" fill="#191D23"/>
<path fill-rule="evenodd" clip-rule="evenodd" d="M8.33331 3.18182C9.50786 3.18182 10.5624 3.58545 11.3915 4.37818L13.686 2.08364C12.3006 0.792727 10.4897 0 8.33331 0C5.20604 0 2.50058 1.79273 1.18422 4.40727L3.85695 6.48C4.48604 4.58909 6.24967 3.18182 8.33331 3.18182Z" fill="#191D23"/>
</svg>
