<svg width="14" height="16" viewBox="0 0 14 16" fill="none" xmlns="http://www.w3.org/2000/svg">
<path d="M13.7066 12.4689C13.4553 13.0279 13.1577 13.5424 12.813 14.0155C12.3431 14.6604 11.9584 15.1068 11.6619 15.3547C11.2023 15.7616 10.7098 15.97 10.1825 15.9818C9.80393 15.9818 9.34739 15.8781 8.81595 15.6678C8.28277 15.4584 7.79278 15.3547 7.34475 15.3547C6.87487 15.3547 6.37092 15.4584 5.83189 15.6678C5.29204 15.8781 4.85715 15.9878 4.52464 15.9986C4.01895 16.0194 3.51491 15.8051 3.01178 15.3547C2.69067 15.0851 2.28901 14.6229 1.80784 13.9681C1.29159 13.2688 0.867156 12.458 0.534649 11.5336C0.178544 10.5351 3.05176e-05 9.5682 3.05176e-05 8.63213C3.05176e-05 7.55987 0.240716 6.63506 0.722806 5.86007C1.10169 5.23757 1.60573 4.74652 2.23658 4.38604C2.86744 4.02556 3.54907 3.84186 4.28313 3.83011C4.68479 3.83011 5.21151 3.94971 5.86606 4.18476C6.51876 4.42061 6.93786 4.54021 7.12161 4.54021C7.25898 4.54021 7.72455 4.40036 8.51381 4.12156C9.26018 3.863 9.89011 3.75594 10.4062 3.79811C11.8045 3.90675 12.8551 4.4374 13.5537 5.39342C12.3031 6.12288 11.6845 7.14457 11.6968 8.45525C11.7081 9.47616 12.0928 10.3257 12.8489 11.0003C13.1916 11.3133 13.5743 11.5553 14 11.7272C13.9077 11.9849 13.8102 12.2318 13.7066 12.4689V12.4689ZM10.4995 0.320091C10.4995 1.12027 10.1958 1.8674 9.59053 2.55894C8.86006 3.38103 7.97652 3.85608 7.0184 3.78112C7.00619 3.68512 6.99911 3.58409 6.99911 3.47792C6.99911 2.70975 7.34649 1.88765 7.96339 1.21547C8.27138 0.875136 8.66308 0.592152 9.13809 0.36641C9.61208 0.144037 10.0604 0.0210593 10.4821 0C10.4944 0.106972 10.4995 0.213951 10.4995 0.320081V0.320091Z" fill="#191D23"/>
</svg>
