<svg width="17" height="16" viewBox="0 0 17 16" fill="none" xmlns="http://www.w3.org/2000/svg">
<path d="M16.6667 8.04889C16.6667 3.60361 13.085 -2.54302e-07 8.66672 -2.54302e-07C4.24844 -2.54302e-07 0.666718 3.60361 0.666718 8.04889C0.666718 12.0663 3.5922 15.3962 7.41672 16V10.3755H5.38547V8.04889H7.41672V6.27562C7.41672 4.25837 8.61106 3.1441 10.4384 3.1441C11.3137 3.1441 12.2292 3.3013 12.2292 3.3013V5.28208H11.2204C10.2266 5.28208 9.91672 5.90252 9.91672 6.53905V8.04889H12.1355L11.7808 10.3755H9.91672V16C13.7412 15.3962 16.6667 12.0663 16.6667 8.04889Z" fill="#191D23"/>
</svg>
